<?xml version="1.0" encoding="utf-8"?>
<!-- Generator: Adobe Illustrator 25.4.1, SVG Export Plug-In . SVG Version: 6.00 Build 0)  -->
<svg version="1.1" id="Capa_1" xmlns="http://www.w3.org/2000/svg" xmlns:xlink="http://www.w3.org/1999/xlink" x="0px" y="0px"
	 viewBox="0 0 168 168" style="enable-background:new 0 0 168 168;" xml:space="preserve">
<style type="text/css">
	.st0{fill:#FFFFFF;}
	.st1{fill:#FF17B2;}
	.st2{fill:#00C0EB;}
	.st3{fill:#8F03E1;}
	.st4{fill:#FFB200;}
</style>
<g>
	<rect x="0" class="st0" width="168" height="168"/>
	<path class="st1" d="M119.8,70.4c0-3.8-2.3-6.2-5.3-7.1c0,0,0,0,0,0c2.1-1,4.6-2.8,4.6-6.5c0-5.5-4.8-9.1-11.2-9.1H88.3v31.9h20.3
		C116.2,79.5,119.8,75.3,119.8,70.4z"/>
	<path class="st2" d="M63.5,89.9c-7.1,0-12.2,4.1-12.2,9.8c0,5.3,3.5,7.7,7.1,9.1c0,0,0,0,0,0l-8.4,8.4c2,3.1,5.7,6,12.9,6
		c7.5,0,12.7-4.4,12.7-10.3c0-5.6-3.9-7.9-7.9-9.3c0,0,0,0,0,0l7.9-7.9C73.3,92.3,69,89.9,63.5,89.9z"/>
	<polygon class="st3" points="70.9,47.7 59.7,47.7 56.7,47.7 51.5,47.7 51.5,79.5 57.9,79.5 74.2,79.5 74.2,79.5 75.8,79.5 
		75.8,63.4 70.9,63.4 	"/>
	<polygon class="st4" points="109.6,92 94.2,92 94.2,99.5 86.7,99.5 86.7,114.9 94.2,114.9 94.2,122.4 109.6,122.4 109.6,114.9 
		117.1,114.9 117.1,99.5 109.6,99.5 	"/>
</g>
</svg>
